<svg height="480pt" viewBox="0 0 480 480" width="480pt" xmlns="http://www.w3.org/2000/svg"><path d="m400 112v-104h-80v124c-1.128906 43.066406-36.933594 77.078125-80 76-43.066406 1.078125-78.871094-32.933594-80-76v-124h-80v104l-32 128v232h384v-232zm0 0" fill="#5a6470"/><path d="m80 8h80v80h-80zm0 0" fill="#aabece"/><path d="m320 8h80v80h-80zm0 0" fill="#aabece"/><path d="m8 232h160v80h-160zm0 0" fill="#cfdfe8"/><path d="m312 232h160v80h-160zm0 0" fill="#cfdfe8"/><path d="m168 240h144v64h-144zm0 0" fill="#aabece"/><path d="m8 352h160v80h-160zm0 0" fill="#cfdfe8"/><path d="m312 352h160v80h-160zm0 0" fill="#cfdfe8"/><path d="m168 360h144v64h-144zm0 0" fill="#aabece"/><path d="m96 208h-32c-4.417969 0-8-3.582031-8-8s3.582031-8 8-8h32c4.417969 0 8 3.582031 8 8s-3.582031 8-8 8zm0 0" fill="#aabece"/><path d="m136 208h-8c-4.417969 0-8-3.582031-8-8s3.582031-8 8-8h8c4.417969 0 8 3.582031 8 8s-3.582031 8-8 8zm0 0" fill="#aabece"/><path d="m408 176h-40c-4.417969 0-8-3.582031-8-8s3.582031-8 8-8h40c4.417969 0 8 3.582031 8 8s-3.582031 8-8 8zm0 0" fill="#aabece"/><path d="m416 208h-64c-4.417969 0-8-3.582031-8-8s3.582031-8 8-8h64c4.417969 0 8 3.582031 8 8s-3.582031 8-8 8zm0 0" fill="#aabece"/><g fill="#5a6470"><path d="m240 280h-72c-4.417969 0-8-3.582031-8-8s3.582031-8 8-8h72c4.417969 0 8 3.582031 8 8s-3.582031 8-8 8zm0 0"/><path d="m240 400h-72c-4.417969 0-8-3.582031-8-8s3.582031-8 8-8h72c4.417969 0 8 3.582031 8 8s-3.582031 8-8 8zm0 0"/><path d="m88 280h-80c-4.417969 0-8-3.582031-8-8s3.582031-8 8-8h80c4.417969 0 8 3.582031 8 8s-3.582031 8-8 8zm0 0"/><path d="m136 280h-16c-4.417969 0-8-3.582031-8-8s3.582031-8 8-8h16c4.417969 0 8 3.582031 8 8s-3.582031 8-8 8zm0 0"/><path d="m88 400h-80c-4.417969 0-8-3.582031-8-8s3.582031-8 8-8h80c4.417969 0 8 3.582031 8 8s-3.582031 8-8 8zm0 0"/><path d="m136 400h-16c-4.417969 0-8-3.582031-8-8s3.582031-8 8-8h16c4.417969 0 8 3.582031 8 8s-3.582031 8-8 8zm0 0"/><path d="m392 400h-80c-4.417969 0-8-3.582031-8-8s3.582031-8 8-8h80c4.417969 0 8 3.582031 8 8s-3.582031 8-8 8zm0 0"/><path d="m440 400h-16c-4.417969 0-8-3.582031-8-8s3.582031-8 8-8h16c4.417969 0 8 3.582031 8 8s-3.582031 8-8 8zm0 0"/><path d="m392 280h-80c-4.417969 0-8-3.582031-8-8s3.582031-8 8-8h80c4.417969 0 8 3.582031 8 8s-3.582031 8-8 8zm0 0"/><path d="m440 280h-16c-4.417969 0-8-3.582031-8-8s3.582031-8 8-8h16c4.417969 0 8 3.582031 8 8s-3.582031 8-8 8zm0 0"/></g><path d="m472 224h-35.753906l-28.246094-112.984375v-103.015625c0-4.417969-3.582031-8-8-8h-80c-4.417969 0-8 3.582031-8 8v124c-1.179688 38.625-33.371094 69.027344-72 68-38.628906 1.027344-70.820312-29.375-72-68v-124c0-4.417969-3.582031-8-8-8h-80c-4.417969 0-8 3.582031-8 8v103.015625l-28.246094 112.984375h-35.753906c-4.417969 0-8 3.582031-8 8v80c0 4.417969 3.582031 8 8 8h32v24h-32c-4.417969 0-8 3.582031-8 8v80c0 4.417969 3.582031 8 8 8h32v32c0 4.417969 3.582031 8 8 8h384c4.417969 0 8-3.582031 8-8v-32h32c4.417969 0 8-3.582031 8-8v-80c0-4.417969-3.582031-8-8-8h-32v-24h32c4.417969 0 8-3.582031 8-8v-80c0-4.417969-3.582031-8-8-8zm-144-208h64v64h-64zm-240 0h64v64h-64zm-23.753906 192h31.753906c4.417969 0 8-3.582031 8-8s-3.582031-8-8-8h-27.753906l19.515625-78.0625c.160156-.632812.238281-1.285156.238281-1.9375v-16h64v36c1.183594 47.460938 40.535156 85.023438 88 84 47.464844 1.023438 86.816406-36.539062 88-84v-36h64v16c0 .652344.078125 1.304688.238281 1.9375l11.515625 46.0625h-35.753906c-4.417969 0-8 3.582031-8 8s3.582031 8 8 8h39.753906l4 16h-59.753906c-4.417969 0-8 3.582031-8 8s3.582031 8 8 8h63.753906l4 16h-107.753906c-4.417969 0-8 3.582031-8 8h-128c0-4.417969-3.582031-8-8-8h-107.753906zm111.753906 72h64c4.417969 0 8-3.582031 8-8s-3.582031-8-8-8h-64v-16h128v48h-128zm-160 0h72c4.417969 0 8-3.582031 8-8s-3.582031-8-8-8h-72v-24h144v64h-144zm0 120h72c4.417969 0 8-3.582031 8-8s-3.582031-8-8-8h-72v-24h144v64h-144zm288 16h-128v-16h64c4.417969 0 8-3.582031 8-8s-3.582031-8-8-8h-64v-16h128zm120 48h-368v-24h112c4.417969 0 8-3.582031 8-8h128c0 4.417969 3.582031 8 8 8h112zm40-40h-144v-24h72c4.417969 0 8-3.582031 8-8s-3.582031-8-8-8h-72v-24h144zm-40-80h-112c-4.417969 0-8 3.582031-8 8h-128c0-4.417969-3.582031-8-8-8h-112v-24h112c4.417969 0 8-3.582031 8-8h128c0 4.417969 3.582031 8 8 8h112zm40-40h-144v-24h72c4.417969 0 8-3.582031 8-8s-3.582031-8-8-8h-72v-24h144zm0 0"/><path d="m136 192h-8c-4.417969 0-8 3.582031-8 8s3.582031 8 8 8h8c4.417969 0 8-3.582031 8-8s-3.582031-8-8-8zm0 0"/><path d="m120 280h16c4.417969 0 8-3.582031 8-8s-3.582031-8-8-8h-16c-4.417969 0-8 3.582031-8 8s3.582031 8 8 8zm0 0"/><path d="m120 400h16c4.417969 0 8-3.582031 8-8s-3.582031-8-8-8h-16c-4.417969 0-8 3.582031-8 8s3.582031 8 8 8zm0 0"/><path d="m416 392c0 4.417969 3.582031 8 8 8h16c4.417969 0 8-3.582031 8-8s-3.582031-8-8-8h-16c-4.417969 0-8 3.582031-8 8zm0 0"/><path d="m416 272c0 4.417969 3.582031 8 8 8h16c4.417969 0 8-3.582031 8-8s-3.582031-8-8-8h-16c-4.417969 0-8 3.582031-8 8zm0 0"/></svg>